<svg width="10" height="10" viewBox="0 0 10 10" fill="none" xmlns="http://www.w3.org/2000/svg">
<g clip-path="url(#clip0_36_384)">
<path fill-rule="evenodd" clip-rule="evenodd" d="M4.99988 5.71429C6.57784 5.71429 7.85702 4.4351 7.85702 2.85714L7.85688 2.82733C7.04391 2.80542 6.30396 2.48968 5.73988 1.98315C5.1549 2.50846 4.38078 2.82857 3.53222 2.82857C3.04365 2.82857 2.5791 2.72234 2.16109 2.53153C2.14897 2.63839 2.14274 2.74704 2.14274 2.85714C2.14274 4.4351 3.42192 5.71429 4.99988 5.71429ZM6.00725 1.24037C6.44312 1.73254 7.06222 2.05711 7.75767 2.10742C7.42831 0.893136 6.3184 0 4.99988 0C3.78692 0 2.7505 0.75585 2.33593 1.82224C2.69345 2.00873 3.10002 2.11429 3.53222 2.11429C4.30441 2.11429 4.99734 1.77692 5.47252 1.24038C5.5403 1.16384 5.63764 1.12001 5.73988 1.12001C5.84212 1.12001 5.93946 1.16384 6.00725 1.24037ZM0.365609 9.54814C1.10869 7.71864 2.90368 6.42859 4.99996 6.42859C7.09625 6.42859 8.89124 7.71864 9.63431 9.54814C9.72424 9.7695 9.55288 10 9.31395 10H0.685944C0.447033 10 0.275706 9.7695 0.365609 9.54814Z" fill="black"/>
</g>
<defs>
<clipPath id="clip0_36_384">
<rect width="10" height="10" fill="white"/>
</clipPath>
</defs>
</svg>
