<svg width="10" height="10" viewBox="0 0 10 10" fill="none" xmlns="http://www.w3.org/2000/svg">
<path fill-rule="evenodd" clip-rule="evenodd" d="M4.99996 -0.000488281C6.87248 -0.000488281 8.43287 1.55991 8.43287 3.43244C8.43287 4.04358 8.2228 4.64629 7.92923 5.19236C7.63451 5.74056 7.24437 6.25241 6.85677 6.68817C6.46844 7.12479 6.07605 7.49239 5.77034 7.75211C5.61764 7.88182 5.48398 7.98682 5.38093 8.06118C5.33004 8.09789 5.28236 8.13018 5.24121 8.15489C5.22118 8.16689 5.19677 8.18075 5.17081 8.19275C5.15789 8.19868 5.13931 8.20668 5.11713 8.21375C5.09969 8.21932 5.05609 8.23239 4.99996 8.23239C4.94333 8.23239 4.89939 8.21911 4.88189 8.21346C4.85959 8.20625 4.84094 8.19818 4.82799 8.19218C4.80199 8.18003 4.77756 8.16611 4.75754 8.15396C4.71639 8.12903 4.66874 8.09646 4.61788 8.05946C4.5149 7.98461 4.3813 7.87889 4.22868 7.74832C3.92311 7.48704 3.53091 7.11754 3.14276 6.67974C2.75539 6.24283 2.36544 5.73051 2.07081 5.1836C1.77745 4.63903 1.56703 4.03878 1.56703 3.43244C1.56703 1.55991 3.12743 -0.000488281 4.99996 -0.000488281ZM4.99996 4.4577C4.43371 4.4577 3.97469 3.99868 3.97469 3.43244C3.97469 2.86621 4.43371 2.40718 4.99996 2.40718C5.56619 2.40718 6.02521 2.86621 6.02521 3.43244C6.02521 3.99868 5.56619 4.4577 4.99996 4.4577ZM7.21366 7.25461C7.34544 7.10646 7.4773 6.95124 7.60673 6.78999H7.90794H8.56609C8.70894 6.78999 8.83809 6.87513 8.89437 7.00645L9.96416 9.50275C10.0114 9.61311 10.0002 9.73982 9.93408 9.84004C9.86801 9.94025 9.75594 10.0005 9.63594 10.0005H0.36398C0.243929 10.0005 0.131909 9.94025 0.0658224 9.84004C-0.000264583 9.73982 -0.0115765 9.61311 0.0357141 9.50275L1.10555 7.00645C1.16183 6.87513 1.29095 6.78999 1.43382 6.78999H2.09191H2.40191C2.52839 6.94748 2.65714 7.09926 2.78578 7.24432C3.2583 7.77732 3.73584 8.22725 4.1076 8.54511C4.29332 8.70396 4.45523 8.83204 4.57922 8.92218C4.64058 8.96682 4.69692 9.00525 4.74461 9.03411C4.7679 9.04825 4.79506 9.06368 4.82323 9.07682C4.83726 9.08339 4.85685 9.09182 4.87993 9.09925C4.89822 9.10518 4.94281 9.11861 4.99991 9.11861C5.05654 9.11861 5.10078 9.10539 5.11901 9.09961C5.14198 9.09225 5.1615 9.08389 5.1755 9.07739C5.20362 9.06439 5.23076 9.04911 5.25406 9.03511C5.30176 9.00646 5.35811 8.96832 5.41951 8.92404C5.54357 8.83453 5.70554 8.70739 5.89134 8.54953C6.26325 8.23361 6.74098 7.78604 7.21366 7.25461Z" fill="black"/>
</svg>
