<svg width="10" height="10" viewBox="0 0 10 10" fill="none" xmlns="http://www.w3.org/2000/svg">
<g clip-path="url(#clip0_36_374)">
<path fill-rule="evenodd" clip-rule="evenodd" d="M3.31602 1.10393C2.52427 2.47559 2.06804 4.01909 1.98957 5.6076C0.979579 5.80731 0.218018 6.69802 0.218018 7.76662C0.218018 8.98212 1.20338 9.96748 2.41889 9.96748C3.63439 9.96748 4.61976 8.98212 4.61976 7.76662C4.61976 6.77401 3.96264 5.93487 3.05969 5.66049C3.12137 4.41176 3.44453 3.19417 4.00339 2.08504C4.34457 3.3792 5.02143 4.56799 5.97356 5.52613C5.60565 5.91952 5.38043 6.44802 5.38043 7.02913C5.38043 8.24462 6.36579 9.22998 7.58131 9.22998C8.79681 9.22998 9.78217 8.24462 9.78217 7.02913C9.78217 5.81362 8.79681 4.82826 7.58131 4.82826C7.34446 4.82826 7.11629 4.86569 6.90249 4.93494C5.81711 3.91817 5.11157 2.56654 4.89389 1.10393H6.05713C6.35299 1.10393 6.59284 0.864088 6.59284 0.568218C6.59284 0.272351 6.35299 0.0325037 6.05713 0.0325037H4.30564C4.30168 0.0324597 4.29772 0.0324597 4.29377 0.0325037H2.48734C2.19147 0.0325037 1.95163 0.272351 1.95163 0.568218C1.95163 0.864088 2.19147 1.10393 2.48734 1.10393H3.31602Z" fill="black"/>
</g>
<defs>
<clipPath id="clip0_36_374">
<rect width="10" height="10" fill="white"/>
</clipPath>
</defs>
</svg>
