<svg width="15" height="15" viewBox="0 0 15 15" fill="none" xmlns="http://www.w3.org/2000/svg">
<path fill-rule="evenodd" clip-rule="evenodd" d="M4.17496 1.63693C4.12711 1.63664 4.08085 1.65409 4.04515 1.68587C4.01012 1.71704 3.98765 1.75983 3.98182 1.80628C3.91998 2.43228 3.87441 3.20412 3.84702 3.82445H11.1528C11.1254 3.20409 11.0799 2.43222 11.018 1.8062C11.0121 1.75979 10.9896 1.71702 10.9547 1.68587C10.9189 1.65408 10.8728 1.63664 10.8249 1.63693L10.82 1.63696L4.17984 1.63695L4.17496 1.63693ZM4.18193 0.0298036C3.73781 0.027796 3.30852 0.19 2.97668 0.485342C2.64415 0.781283 2.43305 1.18991 2.38408 1.63235L2.38313 1.64148C2.27084 2.77459 2.20972 4.34642 2.20972 4.82147C2.20972 6.35189 2.80366 7.58159 3.80953 8.41413C4.60347 9.07127 5.61128 9.44699 6.69632 9.56886V13.2925H5.35704C4.91324 13.2925 4.55347 13.6523 4.55347 14.0961C4.55347 14.5399 4.91324 14.8996 5.35704 14.8996H9.64275C10.0865 14.8996 10.4463 14.5399 10.4463 14.0961C10.4463 13.6523 10.0865 13.2925 9.64275 13.2925H8.30347V9.56887C9.38854 9.447 10.3964 9.07128 11.1903 8.41413C12.1962 7.58159 12.7901 6.35188 12.7901 4.82147C12.7901 4.34642 12.729 2.77459 12.6167 1.64148L12.6158 1.63235C12.5668 1.18991 12.3557 0.781283 12.0231 0.485342C11.6913 0.190016 11.2621 0.0277958 10.8179 0.0298036H10.82V0.833375L10.8151 0.0298184L10.8179 0.0298036H4.18193Z" fill="black"/>
</svg>
